<?xml version="1.0" encoding="utf-8"?>
<!-- Generator: Adobe Illustrator 19.0.0, SVG Export Plug-In . SVG Version: 6.00 Build 0)  -->
<svg version="1.1" id="Layer_1" xmlns="http://www.w3.org/2000/svg" xmlns:xlink="http://www.w3.org/1999/xlink" x="0px" y="0px"
	 viewBox="0 0 207.5 221" style="enable-background:new 0 0 207.5 221;" xml:space="preserve">
<style type="text/css">
	.st0{fill:none;stroke:#252A44;stroke-width:4.3246;stroke-linecap:round;stroke-linejoin:round;stroke-miterlimit:10;}
	.st1{fill:none;stroke:#252A44;stroke-width:4.3246;stroke-miterlimit:10;}
</style>
<g>
	<g>
		<path class="st0" d="M188.1,67.7c-6.8,2-41,11.9-48.1,11.7c-7.8-0.2-14.6-4.1-16.9-11.2c-2.3-7.1-0.4-12.2-0.4-12.2L88.3,30.6
			l0.2,0.5c2,6.8,11.9,41,11.7,48.1c-0.2,7.8-4.1,14.6-11.2,16.9c-7.1,2.3-12.2,0.4-12.2,0.4l-25.4,34.4l0.5-0.2
			c6.8-2,41-11.9,48.1-11.7c7.8,0.2,14.6,4.1,16.9,11.2c2.3,7.1,0.4,12.2,0.4,12.2l34.4,25.4l-0.2-0.5c-2-6.8-11.9-41-11.7-48.1
			c0.2-7.8,4.1-14.6,11.2-16.9c7.1-2.3,12.2-0.4,12.2-0.4l25.4-34.4L188.1,67.7z"/>
		<line class="st0" x1="156.8" y1="91.7" x2="171" y2="72.6"/>
		<line class="st0" x1="83.2" y1="106.8" x2="69.1" y2="126"/>
		<line class="st0" x1="127.6" y1="136.1" x2="146.7" y2="150.2"/>
		<line class="st0" x1="112.5" y1="62.5" x2="93.3" y2="48.3"/>
	</g>
	<circle class="st1" cx="120" cy="99.2" r="5.8"/>
</g>
</svg>
