<?xml version="1.0" encoding="utf-8"?>
<!-- Generator: Adobe Illustrator 19.0.0, SVG Export Plug-In . SVG Version: 6.00 Build 0)  -->
<svg version="1.1" id="Layer_1" xmlns="http://www.w3.org/2000/svg" xmlns:xlink="http://www.w3.org/1999/xlink" x="0px" y="0px"
	 viewBox="0 0 482 482" style="enable-background:new 0 0 482 482;" xml:space="preserve">
<style type="text/css">
	.st0{fill:#ffffff;}
</style>
<g id="XMLID_2_">
	<path id="XMLID_3_" class="st0" d="M88.2,244.5v132.5L241,468.2l152.8-91.8v-132l85.3-51.1l-80.4-1.5l71.4-84.8L314.4,13.8
		L241,100.1l-73.4-86.3L11.8,107l71.4,84.8l-80.4,1.5L88.2,244.5z M165.6,24.7l68.5,81.4L93.1,190.4l-68.5-80.9L165.6,24.7z
		 M457.3,109.5l-69,80.9L247.4,106l69-81.4L457.3,109.5z M96.6,249.4l69,41.2l70.9-1v166.2L96.6,372V249.4z M90.7,200.3l1,1.5l1-0.5
		l133.5,79.9l-58,1L33.6,201.3L90.7,200.3z M245.5,455.8V289.6l70.9,1l69-41.2v122.1L245.5,455.8z M313.9,282.2l-58-1l133.5-79.9
		l1,0.5l1-1.5l57.1,1L313.9,282.2z"/>
</g>
</svg>
