<?xml version="1.0" encoding="utf-8"?>
<!-- Generator: Adobe Illustrator 19.0.0, SVG Export Plug-In . SVG Version: 6.00 Build 0)  -->
<svg version="1.1" id="Layer_1" xmlns="http://www.w3.org/2000/svg" xmlns:xlink="http://www.w3.org/1999/xlink" x="0px" y="0px"
	 viewBox="-582 -55 570 563" style="enable-background:new -582 -55 570 563;" xml:space="preserve">
<style type="text/css">
	.st0{fill:#FFFFFF;}
</style>
<path class="st0" d="M-49.1,415.9l-102.5-102.5h67.2c5.8,0,10.5-4.7,10.5-10.5v-47.1c0-18.7-10.3-35.1-25.5-43.8
	c3.7-5.4,5.9-11.9,5.9-18.9v-29.8c0-18.4-15-33.3-33.3-33.3h-11.5c-7.8,0-15,2.5-21,6.7c-27.9-58.5-87.7-99-156.7-99
	c-68.6,0-128.1,40-156.2,98c-5.3-3.6-11.8-5.8-18.7-5.8h-11.5c-19.9,0-36.1,16.2-36.1,36.1v24.3c0,7.9,2.5,15.2,6.8,21.1
	c-15.7,8.5-26.4,25.2-26.4,44.3v47.1c0,5.8,4.7,10.5,10.5,10.5h91.3c31.6,43.3,82.7,71.5,140.3,71.5c30,0,59.3-7.7,85.2-22.3
	L-113.2,480c2.1,2.1,4.7,3.1,7.4,3.1c2.7,0,5.4-1,7.4-3.1l49.3-49.3C-45,426.6-45,420-49.1,415.9z M-94.9,292.3h-67.6
	c10.8-20.4,17.4-42.8,19.4-65.9h18.8c16.2,0,29.3,13.2,29.3,29.3V292.3z M-138.2,151h11.5c6.8,0,12.3,5.5,12.3,12.3v29.8
	c0,6.8-5.5,12.3-12.3,12.3h-11.5c-1.5,0-2.9-0.2-4.2-0.6c-0.6-16.3-3.5-32.1-8.3-47C-148.1,153.7-143.5,151-138.2,151z M-517.4,166
	c0-8.3,6.7-15,15-15h11.5c4.3,0,8,2.2,10.2,5.5c-5.1,15.4-8.2,31.8-8.8,48.8c-0.5,0.1-1,0.1-1.5,0.1h-11.5c-8.3,0-15-6.7-15-15V166z
	 M-537,292.3v-36.6c0-16.2,13.2-29.3,29.3-29.3h18.8c2.1,23.6,8.9,45.9,19.5,65.9L-537,292.3L-537,292.3z M-105.8,457.7
	l-115.8-115.8c-2-2-4.7-3.1-7.4-3.1c-1.9,0-3.9,0.5-5.6,1.6c-24.3,15.3-52.4,23.4-81.2,23.4c-84.1,0-152.5-68.4-152.5-152.5
	S-400,58.7-315.9,58.7s152.5,68.4,152.5,152.5c0,29.8-8.6,58.6-24.8,83.4c-2.7,4.2-2.2,9.7,1.4,13.2l115.4,115.4L-105.8,457.7z"/>
<path class="st0" d="M-315.9,85c-69.6,0-126.2,56.6-126.2,126.2s56.6,126.2,126.2,126.2s126.2-56.6,126.2-126.2S-246.3,85-315.9,85z
	 M-315.9,106.1c58,0,105.2,47.2,105.2,105.2c0,16.7-3.9,32.6-10.9,46.6c-9.5-17.4-28.7-29.2-53.5-32.2c5.2-8.1,8.1-18.1,8.1-29.4
	v-18.4c0-28.8-19.1-49.7-45.5-49.7h-6.8c-26.4,0-45.5,20.9-45.5,49.7v18.4c0,11.3,2.9,21.3,8.1,29.4c-24.8,3-43.9,14.8-53.5,32.2
	c-7-14.1-10.9-29.9-10.9-46.6C-421.1,153.2-373.9,106.1-315.9,106.1z M-343.8,196.3v-18.4c0-14.3,7.6-28.7,24.5-28.7h6.8
	c16.9,0,24.5,14.4,24.5,28.7v18.4c0,14.3-7.6,28.7-24.5,28.7h-6.8C-336.2,224.9-343.8,210.5-343.8,196.3z M-301.5,246l-14.4,22.7
	l-14.4-22.7H-301.5z M-315.9,316.5c-31.8,0-60.4-14.2-79.7-36.6c2.5-19.9,20.5-30.5,40.7-33.2l30,47.2c1.9,3,5.3,4.9,8.9,4.9
	c3.6,0,6.9-1.8,8.9-4.9l30-47.2c20.2,2.7,38.3,13.3,40.7,33.2C-255.6,302.3-284.1,316.5-315.9,316.5z"/>
<path class="st0" d="M-315.9,13.7c5.8,0,10.5-4.7,10.5-10.5v-20c0-5.8-4.7-10.5-10.5-10.5c-5.8,0-10.5,4.7-10.5,10.5v20
	C-326.4,8.9-321.7,13.7-315.9,13.7z"/>
<path class="st0" d="M-221.8,38.9c1.7,1,3.5,1.4,5.2,1.4c3.6,0,7.2-1.9,9.1-5.3l10-17.3c2.9-5,1.2-11.5-3.9-14.4
	c-5-2.9-11.5-1.2-14.4,3.9l-10,17.3C-228.6,29.5-226.9,36-221.8,38.9z"/>
<path class="st0" d="M-424.3,35c1.9,3.4,5.5,5.3,9.1,5.3c1.8,0,3.6-0.5,5.3-1.4c5-2.9,6.8-9.3,3.9-14.4l-10-17.3
	c-2.9-5-9.3-6.8-14.4-3.9c-5,2.9-6.8,9.3-3.9,14.4L-424.3,35z"/>
</svg>
