<?xml version="1.0" encoding="utf-8"?>
<!-- Generator: Adobe Illustrator 19.0.0, SVG Export Plug-In . SVG Version: 6.00 Build 0)  -->
<svg version="1.1" id="Capa_1" xmlns="http://www.w3.org/2000/svg" xmlns:xlink="http://www.w3.org/1999/xlink" x="0px" y="0px"
	 viewBox="129 -171.6 481.6 481.6" style="enable-background:new 129 -171.6 481.6 481.6;" xml:space="preserve">
<style type="text/css">
	.st0{fill:#FFFFFF;}
</style>
<g>
	<g>
		<path class="st0" d="M424.9,82.9c11.9,9.8,20.1,25.3,20.1,42.3c0,17-8.2,32.5-20.1,42.8c-9.8,8.2-21.6,13.4-34.5,15.5v10.3
			c0,11.9-9.3,20.6-20.6,20.6s-20.6-9.3-20.6-20.6v-9.8h-15.5c-11.9,0-20.6-9.3-20.6-20.6c0-11.3,9.3-20.6,20.6-20.6h36.1h11.3
			c6.7,0,12.9-2.6,17-5.7c4.1-3.6,5.7-7.7,5.7-11.3c0-4.1-1.5-7.7-5.7-11.3s-10.3-6.2-17-6.2h-21.6c-17,0-32.5-5.7-44.8-16.5
			c-11.9-9.8-20.1-25.3-20.1-42.3c0-17,8.2-32.5,20.1-42.8c9.3-8.2,21.6-13.4,34.5-15.5v-10.3c0-11.3,9.3-20.6,20.6-20.6
			s20.6,9.3,20.6,20.6v9.8h15.5c11.9,0,20.6,9.3,20.6,20.6s-9.3,20.6-20.6,20.6h-36.1H359c-7.2,0-13.4,2.6-17,5.7
			c-4.1,3.6-5.7,7.7-5.7,11.3c0,4.1,1.5,7.7,5.7,11.3c4.1,3.6,9.8,6.2,17,6.2h21.6C397.1,66.9,412.6,72.5,424.9,82.9z"/>
		<path class="st0" d="M519.3,221V23.6c0-10.3-4.1-20.6-11.9-27.8L396.1-110.9c-7.7-6.7-17-10.3-26.8-10.3
			c-9.8,0-19.1,3.6-26.8,10.3L231.2-4.2c-7.7,7.2-11.9,17-11.9,27.8V221c0,21.1,17.5,38.7,38.7,38.7h222.6
			C502.2,259.1,519.3,242.1,519.3,221z M561,23.6V221c0,44.3-35.6,79.9-79.9,79.9H258.5c-43.8,0-79.9-35.6-79.9-79.9V23.6
			c0-21.6,8.8-42.8,24.7-57.7l111.3-106.2c15.5-14.4,35.6-22.2,55.7-22.2s39.7,7.7,55.7,22.2L537.3-34.1
			C551.7-19.2,561,1.4,561,23.6z"/>
	</g>
</g>
</svg>
