<?xml version="1.0" encoding="utf-8"?>
<!-- Generator: Adobe Illustrator 19.0.0, SVG Export Plug-In . SVG Version: 6.00 Build 0)  -->
<svg version="1.1" id="Layer_1" xmlns="http://www.w3.org/2000/svg" xmlns:xlink="http://www.w3.org/1999/xlink" x="0px" y="0px"
	 viewBox="0 0 539 510" style="enable-background:new 0 0 539 510;" xml:space="preserve">
<style type="text/css">
	.st0{fill:#FFFFFF;}
</style>
<g>
	<path class="st0" d="M468.5,15.7H68.7c-36,0-65.5,29.3-65.5,65.5v253.6c0,36,29.3,65.5,65.5,65.5h185v62.5h-92.2
		c-8.3,0-14.9,6.6-14.9,14.9c0,8.3,6.6,14.9,14.9,14.9h214.2c8.3,0,14.9-6.6,14.9-14.9c0-8.3-6.6-14.9-14.9-14.9h-92.2v-62.5h185
		c36,0,65.5-29.3,65.5-65.5V81.1C534,45,504.7,15.7,468.5,15.7L468.5,15.7z M68.7,45.4h399.9c19.6,0,35.7,16,35.7,35.7V293H33V81.1
		C33,61.4,49,45.4,68.7,45.4L68.7,45.4z M468.5,370.4H68.7c-19.6,0-35.7-16-35.7-35.7v-11.9h471.2v11.9
		C504.2,354.3,488.3,370.4,468.5,370.4L468.5,370.4z M468.5,370.4"/>
</g>
</svg>
