<?xml version="1.0" encoding="utf-8"?>
<!-- Generator: Adobe Illustrator 19.0.0, SVG Export Plug-In . SVG Version: 6.00 Build 0)  -->
<svg version="1.1" id="Layer_1" xmlns="http://www.w3.org/2000/svg" xmlns:xlink="http://www.w3.org/1999/xlink" x="0px" y="0px"
	 viewBox="0 0 74 73.5" style="enable-background:new 0 0 74 73.5;" xml:space="preserve">
<style type="text/css">
	.st0{fill:none;stroke:#FFFFFF;stroke-width:2;stroke-linecap:round;stroke-linejoin:round;stroke-miterlimit:22.9256;}
	.st1{fill:none;stroke:#FFFFFF;stroke-width:2;stroke-miterlimit:22.9256;}
</style>
<path class="st0" d="M59.1,43.5l4-4c6.8-6.8,3.5-16-2.1-22c-1.8-2-3.9-3.6-6-4.8c-2.8-1.6-11.6-3.9-17.3,1.7L25.8,26.3
	c-3.2,3.2,4.9,6.3,9,2.2l3-3c4.4-4,10,4,16.9-1.4 M12.8,41.6l-4-4c-13.2-13.2,9.7-35.8,23-22.8l2.7,2.7 M44.1,28.4l15.3,16.1
	c3.1,3.3-1.5,9.5-5.5,5.4l-7.2-7.4 M40.5,47.4l7.9,8.1c3.2,3.2,9.6-1.6,5.5-5.7l-7.7-8 M38.1,56.4l3.9,4c3.2,3.2,9.4-1.4,5.4-5.6"/>
<path class="st1" d="M22.2,38.3l0.4,0.4c1.4,1.4,1.4,3.8,0,5.2l-5.5,5.5c-1.4,1.4-3.8,1.4-5.2,0L11.6,49c-1.4-1.4-1.4-3.8,0-5.2
	l5.5-5.5C18.4,36.9,20.8,36.9,22.2,38.3L22.2,38.3z M31.4,40.8l0.4,0.4c1.4,1.4,1.4,3.8,0,5.2l-8.7,8.7c-1.4,1.4-3.8,1.4-5.2,0
	l-0.4-0.4c-1.4-1.4-1.4-3.8,0-5.2l8.7-8.7C27.6,39.4,30,39.4,31.4,40.8L31.4,40.8z M34.9,48.9l0.4,0.4c1.4,1.4,1.4,3.8,0,5.2l-6,6
	c-1.4,1.4-3.8,1.4-5.2,0l-0.4-0.4c-1.4-1.4-1.4-3.8,0-5.2l6-6C31.2,47.5,33.5,47.5,34.9,48.9L34.9,48.9z M38.8,56.7l0.4,0.4
	c1.4,1.4,1.4,3.8,0,5.2L35.5,66c-1.4,1.4-3.8,1.4-5.2,0l-0.4-0.4c-1.4-1.4-1.4-3.8,0-5.2l3.7-3.7C35,55.3,37.3,55.3,38.8,56.7
	L38.8,56.7z"/>
</svg>
