<?xml version="1.0" encoding="utf-8"?>
<!-- Generator: Adobe Illustrator 19.0.0, SVG Export Plug-In . SVG Version: 6.00 Build 0)  -->
<svg version="1.1" id="Isolation_Mode" xmlns="http://www.w3.org/2000/svg" xmlns:xlink="http://www.w3.org/1999/xlink" x="0px"
	 y="0px" viewBox="0 0 58 73" style="enable-background:new 0 0 58 73;" xml:space="preserve">
<style type="text/css">
	.st0{fill:none;stroke:#FFFFFF;stroke-width:1.4397;stroke-linecap:round;stroke-linejoin:round;stroke-miterlimit:22.9256;}
</style>
<path class="st0" d="M15.1,15.3H36v16.1c0,5.1-4.7,9.3-10.5,9.3l0,0c-5.8,0-10.5-4.2-10.5-9.3V15.3L15.1,15.3z"/>
<line class="st0" x1="25.5" y1="40.8" x2="25.5" y2="48.1"/>
<line class="st0" x1="16" y1="48.5" x2="35.1" y2="48.5"/>
<path class="st0" d="M14.8,17.9H8.2c1.4,3.9,3.7,6.4,6.6,7.8"/>
<path class="st0" d="M36.2,17.9h6.6c-1.4,3.9-3.7,6.4-6.6,7.8"/>
<polygon class="st0" points="25.5,19.5 27.5,24.1 32.3,24.4 28.5,27.7 29.7,32.4 25.4,29.8 21.3,32.4 22.5,27.5 18.7,24.4 23.7,24 
	25.5,19.5 "/>
</svg>
