<?xml version="1.0" encoding="utf-8"?>
<!-- Generator: Adobe Illustrator 19.0.0, SVG Export Plug-In . SVG Version: 6.00 Build 0)  -->
<svg version="1.1" id="Layer_1" xmlns="http://www.w3.org/2000/svg" xmlns:xlink="http://www.w3.org/1999/xlink" x="0px" y="0px"
	 viewBox="0 0 423.5 261" style="enable-background:new 0 0 423.5 261;" xml:space="preserve">
<style type="text/css">
	.st0{fill:#FFFFFF;}
	.st1{fill:#FFFFFF;stroke:#FFFFFF;stroke-miterlimit:10;}
</style>
<path class="st0" d="M322.6,83.4h6.5c10.6,0,19.2,8.6,19.2,19.2v30.2c0,1.9-1,3.7-2.6,4.7c-2.2,1.4-3.5,3.9-3.5,6.6v29
	c0,3.6,2,6.7,5.2,8.3c3.8,1.8,23.3,11.7,41.4,26.6c1.5,1.3,2.4,3.1,2.4,5.2v20.6c0,4.4,3.5,7.9,7.9,7.9c4.4,0,7.9-3.5,7.9-7.9v-20.6
	c0-6.8-3-13.1-8.2-17.4c-15.9-13.1-33-22.6-40.8-26.6v-21.4c3.8-4,6.1-9.3,6.1-15v-30.2c0-19.4-15.8-35-35-35h-6.5
	c-19.4,0-35,15.8-35,35v30.2c0,5.7,2.2,11,6.1,15V158c0,4.4,3.5,7.9,7.9,7.9c4.4,0,7.9-3.5,7.9-7.9v-13.9c0-2.6-1.4-5.1-3.5-6.6
	c-1.6-1-2.6-2.8-2.6-4.7v-30.2C303.3,92,311.9,83.4,322.6,83.4L322.6,83.4z M322.6,83.4"/>
<path class="st1" d="M23,195.8c-5.2,4.3-8.2,10.6-8.2,17.4v20.6c0,4.4,3.5,7.9,7.9,7.9c4.4,0,7.9-3.5,7.9-7.9v-20.6
	c0-2,0.9-3.9,2.4-5.2c18.1-14.8,37.6-24.7,41.4-26.6c3.2-1.6,5.2-4.7,5.2-8.3v-29c0-2.6-1.4-5.1-3.5-6.6c-1.6-1-2.6-2.8-2.6-4.7
	v-30.2c0-10.6,8.6-19.2,19.2-19.2h6.5c10.6,0,19.2,8.6,19.2,19.2v30.2c0,1.9-1,3.7-2.6,4.7c-2.2,1.4-3.5,3.9-3.5,6.6v14.6
	c0,4.4,3.5,7.9,7.9,7.9c4.4,0,7.9-3.5,7.9-7.9v-10.9c3.8-4,6.1-9.3,6.1-15v-30.2c0-19.4-15.8-35-35-35h-6.5c-19.4,0-35,15.8-35,35
	v30.2c0,5.7,2.2,11,6.1,15v21.4C55.9,173.2,38.9,182.8,23,195.8L23,195.8z M23,195.8"/>
<path class="st0" d="M306.1,241.8c4.4,0,7.9-3.5,7.9-7.9v-26.7c0-8.1-3.5-15.6-9.8-20.7c-21.4-17.6-44.2-30.1-53.6-34.9v-30.1
	c5-4.8,7.8-11.4,7.8-18.4V64c0-23.8-19.4-43-43-43H207c-23.8,0-43,19.4-43,43v39c0,7,2.9,13.6,7.8,18.4v30.1
	c-9.4,4.8-32.2,17.3-53.6,34.9c-6.2,5.1-9.8,12.6-9.8,20.7v26.7c0,4.4,3.5,7.9,7.9,7.9c4.4,0,7.9-3.5,7.9-7.9v-26.7
	c0-3.3,1.4-6.4,4-8.5c23.6-19.4,49.1-32.2,54-34.6c3.4-1.6,5.4-5,5.4-8.6v-37.6c0-2.6-1.4-5.1-3.5-6.6c-2.7-1.8-4.3-4.8-4.3-8.1v-39
	c0-15,12.2-27.2,27.2-27.2h8.4c15,0,27.2,12.2,27.2,27.2v39c0,3.2-1.6,6.2-4.3,8.1c-2.2,1.4-3.5,3.9-3.5,6.6v37.6
	c0,3.7,2.1,7,5.4,8.7c4.9,2.4,30.4,15.3,54,34.6c2.6,2.1,4,5.2,4,8.5V234C298.2,238.3,301.7,241.8,306.1,241.8L306.1,241.8z
	 M306.1,241.8"/>
</svg>
