<?xml version="1.0" encoding="utf-8"?>
<!-- Generator: Adobe Illustrator 19.0.0, SVG Export Plug-In . SVG Version: 6.00 Build 0)  -->
<svg version="1.1" id="Isolation_Mode" xmlns="http://www.w3.org/2000/svg" xmlns:xlink="http://www.w3.org/1999/xlink" x="0px"
	 y="0px" viewBox="-294.3 365.3 63.6 66" style="enable-background:new -294.3 365.3 63.6 66;" xml:space="preserve">
<style type="text/css">
	.st0{fill:#FFFFFF;}
</style>
<path class="st0" d="M-264.9,411.7c-0.8,0-1.6-0.3-2.1-0.8l-17.3-16.2l4.3-4.5l14.9,13.9l29-35.9l4.8,3.9l-31.1,38.6
	c-0.5,0.7-1.3,1.1-2.2,1.2C-264.7,411.7-264.8,411.7-264.9,411.7z"/>
<path class="st0" d="M-239,389.2c0.9,2.7,1.4,5.5,1.4,8.4c0,14.6-11.9,26.5-26.5,26.5c-14.6,0-26.5-11.9-26.5-26.5
	c0-14.6,11.9-26.5,26.5-26.5c5.8,0,11.2,1.9,15.5,5.1l2-2.4c-4.9-3.6-10.9-5.8-17.5-5.8c-16.3,0-29.6,13.3-29.6,29.6
	c0,16.3,13.3,29.6,29.6,29.6c16.3,0,29.6-13.3,29.6-29.6c0-4-0.8-7.8-2.2-11.3L-239,389.2z"/>
</svg>
