<?xml version="1.0" encoding="utf-8"?>
<!-- Generator: Adobe Illustrator 19.0.0, SVG Export Plug-In . SVG Version: 6.00 Build 0)  -->
<svg version="1.1" id="Layer_1" xmlns="http://www.w3.org/2000/svg" xmlns:xlink="http://www.w3.org/1999/xlink" x="0px" y="0px"
	 viewBox="0 0 63.6 59.7" style="enable-background:new 0 0 63.6 59.7;" xml:space="preserve">
<style type="text/css">
	.st0{fill:#FFFFFF;}
</style>
<g>
	<path class="st0" d="M3,58.6h57.6c1.2,0,2.2-1,2.2-2.2V7.5c0-1.2-1-2.2-2.2-2.2H49.8V3.5c0-1.2-1-2.2-2.2-2.2c-1.2,0-2.2,1-2.2,2.2
		v1.9H18.6V3.5c0-1.2-1-2.2-2.2-2.2c-1.2,0-2.2,1-2.2,2.2v1.9H3c-1.2,0-2.2,1-2.2,2.2v48.9C0.8,57.6,1.8,58.6,3,58.6L3,58.6z
		 M5.2,9.7h9v1.2c0,1.2,1,2.2,2.2,2.2c1.2,0,2.2-1,2.2-2.2V9.7h26.8v1.2c0,1.2,1,2.2,2.2,2.2c1.2,0,2.2-1,2.2-2.2V9.7h8.7v5.7H5.2
		V9.7z M5.2,19.7h53.2v34.5H5.2V19.7z M5.2,19.7"/>
	<path class="st0" d="M47.6,29.8H16.1c-1.2,0-2.2,1-2.2,2.2c0,1.2,1,2.2,2.2,2.2h31.5c1.2,0,2.2-1,2.2-2.2
		C49.8,30.7,48.8,29.8,47.6,29.8L47.6,29.8z M47.6,29.8"/>
	<path class="st0" d="M31.8,40.4H16.1c-1.2,0-2.2,1-2.2,2.2c0,1.2,1,2.2,2.2,2.2h15.8c1.2,0,2.2-1,2.2-2.2
		C34,41.3,33.1,40.4,31.8,40.4L31.8,40.4z M31.8,40.4"/>
</g>
</svg>
