<?xml version="1.0" encoding="utf-8"?>
<!-- Generator: Adobe Illustrator 19.0.0, SVG Export Plug-In . SVG Version: 6.00 Build 0)  -->
<svg version="1.1" id="Layer_1" xmlns="http://www.w3.org/2000/svg" xmlns:xlink="http://www.w3.org/1999/xlink" x="0px" y="0px"
	 viewBox="0 0 65.5 67" style="enable-background:new 0 0 65.5 67;" xml:space="preserve">
<style type="text/css">
	.st0{fill:none;stroke:#FFFFFF;stroke-width:1.44;stroke-linecap:round;stroke-linejoin:round;stroke-miterlimit:22.9256;}
</style>
<g>
	<path class="st0" d="M35.1,46.3l8.4-4.5c2-1.1,5.8-2.7,5.9,1.3l1.4-1c4-2.7,7-0.8,5.5,3c7.1-5.2,9.6,1.4,6.4,3L47.1,58l-6.7,4.2
		c-4.7,3-10.9,3-12.7,2c-9.9-2.6-12.8-5-21.5-3.9"/>
	<path class="st0" d="M2.2,42.6l10.3-4.2c2.6-1.1,5.6-0.8,6.7,0c1.9,1.4,3.7,2.7,5.6,4.1c7.7,5.7,8.3,4.3,17.4,4.8
		c2,0.1,3.3,3.4,0,4.6c-8.5,3.9-13.7,2.1-21.5-1.8"/>
	<path class="st0" d="M33.2,2.2c9.1,0,16.6,7.4,16.6,16.6c0,9.1-7.4,16.6-16.6,16.6c-9.1,0-16.6-7.4-16.6-16.6
		C16.6,9.6,24,2.2,33.2,2.2L33.2,2.2z"/>
	<path class="st0" d="M38.3,12.9c-1.6-0.5-3.1-1.1-4.6-1.2c-8-0.9-9,7.1-0.5,7.1c8.3,0,7.5,8-0.5,7.1c-1.5-0.2-3-0.7-4.6-1.2"/>
</g>
</svg>
