<?xml version="1.0" encoding="utf-8"?>
<!-- Generator: Adobe Illustrator 19.0.0, SVG Export Plug-In . SVG Version: 6.00 Build 0)  -->
<svg version="1.1" id="Layer_1" xmlns="http://www.w3.org/2000/svg" xmlns:xlink="http://www.w3.org/1999/xlink" x="0px" y="0px"
	 viewBox="-124 236 138 119" style="enable-background:new -124 236 138 119;" xml:space="preserve">
<style type="text/css">
	.st0{fill:#FFFFFF;stroke:#FFFFFF;stroke-miterlimit:10;}
</style>
<g transform="matrix( 1, 0, 0, 1, 0,0) ">
	<g>
		<path class="st0" d="M-41.4,336.8c-0.2,0-0.3,0-0.5-0.1l-25.6-13.3l-23.2,13.3c-0.5,0.3-1.1,0.1-1.4-0.4c-0.3-0.5-0.1-1.1,0.4-1.4
			l23.7-13.6c0,0,0.1,0,0.1-0.1l22-11.2c1.3-1.8,1.7-2.8,1.7-3.4c0-0.5,0-1.3-1.1-2.1l-3.2,1.6c-0.5,0.2-1.1,0-1.3-0.5
			c-0.2-0.5,0-1.1,0.5-1.3l3.4-1.7c1.4-3.8,0.2-5.2-1.1-5.9l-5,2.3c-0.5,0.2-1.1,0-1.3-0.5c-0.2-0.5,0-1.1,0.5-1.3l5-2.3
			c0.9-3.1-0.1-4.3-1.1-4.9l-8.3,2.8c-0.5,0.2-1.1-0.1-1.3-0.6c-0.2-0.5,0.1-1.1,0.6-1.3l8.6-2.9c0.6-0.3,1.1-0.7,1.4-1.1
			c0.5-1,0.6-1.9,0.3-2.6c-0.3-0.8-1.1-1.6-2.5-2.2c-0.5-0.1-1.5-0.1-3.4,0.5c0,0,0,0,0,0c0,0,0,0,0,0l-10.4,2.4c0,0-0.1,0-0.1,0
			l-3.2,0.5c-0.6,0.1-1.1-0.3-1.2-0.8c-0.1-0.5,0.3-1.1,0.8-1.2l2.5-0.4l0.1-1.5c-0.6,0-1.5,0-2.6-0.1c-1.5,0-2.7-0.1-3.7-0.3
			c-0.1,0-0.2,0-0.2-0.1c-2.5-1.2-4.1-2.9-4.7-5.1c-0.1-0.3,0-0.6,0.1-0.8c0.1-0.2,0.4-0.4,0.7-0.5c1.5-0.3,2.9-0.6,4.1-0.8
			l-5.8-0.7l-3.6,7.4l7.7,3.1c0.2,0.1,0.3,0.2,0.4,0.3c1.3,1.7,1.6,3.4,1.2,5c-0.4,1.2-1.3,2.4-2.7,3.4c1.9,3.3,0.9,5.6-0.6,7.1
			c0.6,1.6,0.4,3.2-0.5,4.6c-0.6,1-1.6,2-2.9,2.7c0.2,1.3-0.2,3-2.3,4.8c-0.1,0.1-0.3,0.2-0.5,0.2c-3.8,0.7-7.5,0.5-11.1-0.6
			l-13.7,7.7c-0.5,0.3-1.1,0.1-1.4-0.4c-0.3-0.5-0.1-1.1,0.4-1.4l12.7-7.2c-1.9-3.7-0.9-5.9,0.5-7.1l-0.7-0.5
			c-0.2-0.1-0.4-0.4-0.4-0.6c-0.7-3.4-0.2-5.9,1.5-7.5c-1.2-1.9-1.7-4.6,1.3-7.8c-0.5-2-0.4-3.7,0.4-5.1c0.8-1.5,2.2-2.6,4.2-3.1
			c0.2-0.1,0.4,0,0.6,0l4,1.6l3.9-8.1c0.2-0.4,0.6-0.6,1-0.6l12.9,1.5c6-1,7.4-1.3,7.6-1.4c0.2-0.1,0.4-0.1,0.7,0
			c0.3,0.1,0.5,0.3,0.6,0.6l2.8,8.3c1.6-0.4,2.8-0.4,3.7-0.2c0.1,0,0.1,0,0.2,0.1c1.9,0.9,3.2,2,3.7,3.4c0.5,1.3,0.3,2.7-0.5,4.2
			c0,0.1-0.1,0.1-0.1,0.2c-0.2,0.3-0.5,0.6-0.8,0.8c1.2,1.1,2.1,3,1.2,6.2c1.9,1.1,3.4,3.4,1.9,7.8c1.6,1.3,1.9,2.7,1.8,3.8
			c-0.1,1.1-0.6,2.3-1.5,3.7l15,7.4c0.5,0.2,0.7,0.8,0.5,1.3c-0.2,0.5-0.8,0.7-1.3,0.5l-15.6-7.7l-20.1,10.2l24.3,12.7
			c0.5,0.3,0.7,0.9,0.4,1.3C-40.6,336.6-41,336.8-41.4,336.8z M-91.8,309.5c3.3,1.1,6.7,1.4,10.2,0.8c1.3-1.2,1.5-2,1.4-2.6
			c-2.3-0.2-4.4-0.6-6.2-1.2c-1-0.3-2.7-1-5.2-2.2c-1.2,0.8-2.1,2.1-0.6,5.1C-92.2,309.3-92,309.4-91.8,309.5z M-91.2,302.2
			c2.6,1.2,4.5,2,5.4,2.3c1.7,0.6,3.8,1,6.2,1.1c1.2-0.7,2.1-1.4,2.6-2.3c0.6-1,0.7-1.9,0.3-2.9c-5.1-1.1-10.1-2.6-14.9-4.6
			c-1.2,1.1-1.6,2.8-1.1,5.4L-91.2,302.2z M-91.1,293.9c4.7,2,9.7,3.5,14.8,4.6c1.1-1,1.9-2.6,0.1-5.2l-14.2-5
			C-92.9,290.8-92.1,292.7-91.1,293.9z M-89.9,286.3l14.2,5c1.2-0.8,2-1.6,2.3-2.5c0.3-1,0.1-2-0.7-3l-8.4-3.3c0,0,0,0,0,0
			c0,0,0,0,0,0l-2-0.8l-2.5-1c-1.3,0.4-2.1,1-2.6,2C-90.2,283.5-90.3,284.8-89.9,286.3z M-70.8,279.5c0.8,0.1,1.9,0.2,3.2,0.3
			c2.3,0.1,3.5,0.1,3.7,0.1c0.3,0,0.5,0.1,0.7,0.3c0.2,0.2,0.3,0.5,0.3,0.8l-0.2,1.9l8-1.9l-2.5-7.3c-1,0.2-3.1,0.6-7.1,1.3l0,0l0,0
			l0,0c0,0,0,0,0,0c0,0,0,0,0,0c0,0,0,0,0,0c-1.9,0.3-5,0.9-9.2,1.8C-73.3,277.9-72.3,278.8-70.8,279.5z"/>
	</g>
</g>
</svg>
