<?xml version="1.0" encoding="utf-8"?>
<!-- Generator: Adobe Illustrator 19.0.0, SVG Export Plug-In . SVG Version: 6.00 Build 0)  -->
<svg version="1.1" id="_x2018_ëîé_x5F_1" xmlns="http://www.w3.org/2000/svg" xmlns:xlink="http://www.w3.org/1999/xlink"
	 x="0px" y="0px" viewBox="0 0 87 105.3" style="enable-background:new 0 0 87 105.3;" xml:space="preserve">
<style type="text/css">
	.st0{fill:#FFFFFF;stroke:#FFFFFF;stroke-miterlimit:10;}
	.st1{fill:#E34029;stroke:#E34129;stroke-miterlimit:10;}
</style>
<g>
	<path class="st0" d="M29.4,93.1C29.3,93.1,29.3,93.1,29.4,93.1c-0.5,0-0.8-0.4-0.7-0.8c0-0.1,0.5-10,0-12.6
		c-0.3-0.7-1.1-2.1-2.2-3.7c-3.4-5.5-9.2-14.7-9.6-24l0-0.3c0-0.4,0-0.5,0-1.7c-0.3-20.4,17.4-22.2,17.6-22.2
		c0.1,0,15.3-2.5,24.7,4.8c4.2,3.3,6.6,8.1,6.9,14.2c0.1,1.3,0.3,3.7,0.6,6.9c0.1,0.7,1.2,2.1,2.2,3.4c1.4,1.8,3,3.8,3.7,5.8
		c0.5,1.4,0.1,2.4-0.3,2.9c-0.7,1-1.8,1.3-2.2,1.3c-0.4,0-0.9,0-1.4,0c-0.5,0-1,0-1.4,0c0,1,0,3.2,0,5.3c0,1.8,0.1,3.8,0.1,5.6
		c0,4.7-3.9,5.9-5.9,5.9h-5.7v8.3c0,0.4-0.3,0.8-0.8,0.8c-0.4,0-0.8-0.3-0.8-0.8v-9c0-0.4,0.3-0.8,0.8-0.8h6.4
		c0.4,0,4.4-0.2,4.4-4.4c0-1.8,0-3.8-0.1-5.6c-0.1-6.3-0.1-6.3,0.5-6.6c0,0,0.1,0,0.1,0c0.5-0.2,1.4-0.2,2.4-0.1c0.4,0,0.9,0,1.3,0
		c0.1,0,0.8-0.2,1.1-0.8c0.2-0.4,0.3-0.9,0-1.5c-0.6-1.8-2.2-3.7-3.5-5.4c-1.4-1.7-2.4-3-2.5-4.2c-0.2-2.3-0.5-5.4-0.6-7
		c-0.3-5.6-2.5-10-6.3-13.1c-8.7-6.8-23.4-4.6-23.6-4.5c-0.7,0.1-16.6,1.7-16.3,20.7c0,1.2,0,1.3,0,1.6l0,0.3
		c0.4,8.8,6,17.9,9.3,23.2c1.1,1.8,2,3.2,2.3,4c0,0,0,0.1,0,0.1c0.6,2.7,0,12.6,0,13.1C30.1,92.8,29.7,93.1,29.4,93.1z M66.6,66.7
		L66.6,66.7L66.6,66.7z"/>
</g>
<path class="st0" d="M35,66.3c-0.1,0-0.2,0-0.4-0.1c-3.8-2.1-4.3-4.1-3.4-13c0-0.4,0.4-0.7,0.8-0.7c0.4,0,0.7,0.4,0.7,0.8
	c-0.9,8.8-0.4,9.9,2.6,11.6c0.4,0.2,0.5,0.7,0.3,1C35.5,66.1,35.2,66.3,35,66.3z"/>
<path class="st0" d="M52.2,46.8C52.2,46.8,52.2,46.8,52.2,46.8c-0.4,0-0.8-0.3-0.8-0.8l0-3.4c0.1-0.8-0.2-1.5-0.6-2
	c-0.2-0.2-0.6-0.5-1.1-0.6c-0.8-0.1-1.7,0.7-1.9,1.7c-0.1,0.4-0.5,0.6-0.9,0.5c-0.4-0.1-0.6-0.5-0.5-0.9c0.5-1.8,1.9-2.9,3.5-2.8
	c0.8,0.1,1.5,0.4,2.1,1.1c0.7,0.8,1,1.9,1,3.1l0,3.4C52.9,46.4,52.6,46.8,52.2,46.8z"/>
<path class="st1" d="M41.3,50"/>
<path class="st0" d="M41.1,43.3c-0.4,0-0.7-0.3-0.7-0.7c-0.2-1.4,0.3-2.6,1.4-3.4c1.3-0.9,3.2-1,4.6-0.3c1,0.5,1.5,1.4,1.5,2.5
	c0,0.4-0.3,0.7-0.8,0.7c0,0,0,0,0,0c-0.4,0-0.7-0.3-0.7-0.8c0-0.5-0.2-0.9-0.7-1.1c-0.9-0.5-2.2-0.4-3,0.2c-0.6,0.4-0.9,1.1-0.8,1.9
	C41.9,42.8,41.6,43.2,41.1,43.3C41.1,43.2,41.1,43.3,41.1,43.3z"/>
<path class="st0" d="M38.6,53.3c-0.1,0-0.2,0-0.2,0c-1.2-0.1-2.3-0.9-2.8-2.2c-0.2-0.4,0-0.8,0.4-1c0.4-0.2,0.8,0,1,0.4
	c0.3,0.7,0.9,1.2,1.5,1.3c0.9,0.1,1.8-0.7,2-1.8c0.1-0.4,0.5-0.7,0.9-0.6c0.4,0.1,0.7,0.5,0.6,0.9C41.6,52,40.2,53.3,38.6,53.3z"/>
<path class="st0" d="M35.8,45.7c-0.4,0-0.7-0.3-0.8-0.7c0-2.7,1.9-4.3,3.8-4.5c1.5-0.1,2.7,0.6,3,2c0.1,0.4-0.2,0.8-0.6,0.9
	c-0.4,0.1-0.8-0.2-0.9-0.6c-0.1-0.8-1.1-0.7-1.3-0.7c-1,0.1-2.5,1-2.5,3C36.6,45.3,36.2,45.7,35.8,45.7
	C35.8,45.7,35.8,45.7,35.8,45.7z"/>
<path class="st0" d="M33.5,54.1c-0.1,0-0.1,0-0.2,0l-0.3,0c-1.7-0.1-2.9-1.5-2.9-3.4l0-4.6c0.1-1,0.5-1.9,1.2-2.5
	c0.7-0.6,1.6-0.9,2.4-0.8c1.1,0.1,2.1,0.8,2.6,1.8c0.2,0.4,0.1,0.8-0.3,1c-0.4,0.2-0.8,0.1-1-0.3c-0.3-0.6-0.8-1-1.4-1
	c-0.5,0-0.9,0.1-1.3,0.5c-0.4,0.4-0.7,0.9-0.7,1.4l0,4.5c0,1.1,0.6,1.8,1.6,1.9l0.3,0c0.4,0,0.9-0.2,1.2-0.5
	c0.4-0.4,0.7-0.9,0.7-1.5c0-0.4,0.4-0.7,0.8-0.7c0.4,0,0.7,0.4,0.7,0.8c-0.1,1-0.5,1.8-1.2,2.5C35.1,53.8,34.3,54.1,33.5,54.1z"/>
<path class="st0" d="M35,73.5C35,73.5,35,73.5,35,73.5c-0.4,0-0.8-0.3-0.8-0.8l0-7.2c0-0.4,0.3-0.7,0.8-0.7c0,0,0,0,0,0
	c0.4,0,0.7,0.3,0.7,0.8l0,7.2C35.7,73.2,35.4,73.5,35,73.5z"/>
<path class="st0" d="M49.5,74.1c-0.4,0-0.8-0.3-0.8-0.8v-8.2c0-0.2,0-0.3,0.1-0.4c0.1-0.1,6.8-9.6,6-14.3c-0.3-2-5.1-4.2-8.1-5.1
	C46.2,45,45.6,45,45,45.3c-0.6,0.3-1,0.7-1.2,1.3c-0.2,0.6-0.2,1.2,0.1,1.8c0.3,0.6,0.7,1,1.3,1.2l4.4,1.5c0.4,0.1,0.6,0.6,0.5,1
	c-0.1,0.4-0.6,0.6-1,0.5L44.8,51c-1-0.3-1.7-1-2.2-1.9c-0.4-0.9-0.5-2-0.2-2.9c0.3-1,1-1.7,1.9-2.2c0.9-0.4,2-0.5,2.9-0.2
	c0.9,0.3,8.6,2.7,9.1,6.3c0.8,5-5.1,13.8-6.2,15.2v8C50.3,73.7,49.9,74.1,49.5,74.1z"/>
<path class="st0" d="M42.2,59.7c-0.4,0-0.7-0.3-0.7-0.7c-0.4-4.5,7.3-7.8,7.6-7.9c0.4-0.2,0.8,0,1,0.4c0.2,0.4,0,0.8-0.4,1
	c-2,0.8-7,3.6-6.7,6.4C43,59.3,42.7,59.7,42.2,59.7C42.3,59.7,42.3,59.7,42.2,59.7z"/>
</svg>
