<?xml version="1.0" encoding="utf-8"?>
<!-- Generator: Adobe Illustrator 19.0.0, SVG Export Plug-In . SVG Version: 6.00 Build 0)  -->
<svg version="1.1" id="Isolation_Mode" xmlns="http://www.w3.org/2000/svg" xmlns:xlink="http://www.w3.org/1999/xlink" x="0px"
	 y="0px" viewBox="0 0 60.3 78" style="enable-background:new 0 0 60.3 78;" xml:space="preserve">
<style type="text/css">
	.st0{fill:none;stroke:#FFFFFF;stroke-width:1.44;stroke-linecap:round;stroke-linejoin:round;stroke-miterlimit:22.9256;}
</style>
<path class="st0" d="M32,40.1c7.8,0,14.1,6.3,14.1,14.1c0,7.8-6.3,14.1-14.1,14.1C24.3,68.3,18,62,18,54.2
	C18,46.4,24.3,40.1,32,40.1L32,40.1z"/>
<line class="st0" x1="30.4" y1="40.1" x2="30.4" y2="36.9"/>
<line class="st0" x1="33.7" y1="36.9" x2="33.7" y2="40.1"/>
<polyline class="st0" points="41.1,43.1 44.6,39.6 46.7,41.6 43.1,45.2 "/>
<line class="st0" x1="20.4" y1="54.2" x2="23.5" y2="54.2"/>
<line class="st0" x1="32" y1="65.8" x2="32" y2="62.7"/>
<line class="st0" x1="43.6" y1="54.2" x2="40.6" y2="54.2"/>
<line class="st0" x1="32" y1="42.6" x2="32" y2="45.7"/>
<path class="st0" d="M32,52.1c1.1,0,2.1,0.9,2.1,2.1c0,1.1-0.9,2.1-2.1,2.1c-1.1,0-2.1-0.9-2.1-2.1C30,53.1,30.9,52.1,32,52.1
	L32,52.1z"/>
<line class="st0" x1="24.9" y1="47.1" x2="30.5" y2="52.7"/>
<path class="st0" d="M28.4,33.1h7.4c0.3,0,0.6,0.3,0.6,0.6v2.2c0,0.4-0.3,0.6-0.6,0.6h-7.4c-0.4,0-0.6-0.3-0.6-0.6v-2.2
	C27.7,33.4,28,33.1,28.4,33.1L28.4,33.1z"/>
</svg>
