<?xml version="1.0" encoding="utf-8"?>
<!-- Generator: Adobe Illustrator 19.0.0, SVG Export Plug-In . SVG Version: 6.00 Build 0)  -->
<svg version="1.1" id="Layer_1" xmlns="http://www.w3.org/2000/svg" xmlns:xlink="http://www.w3.org/1999/xlink" x="0px" y="0px"
	 viewBox="0 0 612 792" style="enable-background:new 0 0 612 792;" xml:space="preserve">
<style type="text/css">
	.st0{fill:#FFFFFF;}
</style>
<g>
	<path class="st0" d="M435.4,350.8v-14.6c0-35-12.4-67.6-34.9-91.8c-23-24.8-54.7-38.4-89.3-38.4h-12.1c-34.6,0-66.2,13.6-89.3,38.4
		c-22.5,24.2-34.9,56.7-34.9,91.8v14.6c-27.3,1.8-49,24.6-49,52.3V426c0,28.9,23.5,52.4,52.4,52.4h29.5c5.3,0,9.6-4.3,9.6-9.6V360.2
		c0-5.3-4.3-9.6-9.6-9.6h-13.8v-14.5c0-63.3,45.1-111,104.9-111h12.1c59.8,0,104.9,47.7,104.9,111v14.5h-13.8
		c-5.3,0-9.6,4.3-9.6,9.6v108.5c0,5.3,4.3,9.6,9.6,9.6h13.4c-3.9,50.1-38.4,61.7-54.4,64.3c-4.4-13.5-17.1-23.3-32.1-23.3h-24
		c-18.6,0-33.7,15.1-33.7,33.7c0,18.6,15.1,33.8,33.7,33.8h24.1c15.5,0,28.6-10.6,32.5-24.8c7.8-1.1,20.2-3.9,32.6-11.1
		c17.4-10.2,37.9-30.9,40.6-72.6c27.4-1.7,49.2-24.5,49.2-52.3V403C484.2,375.4,462.6,352.6,435.4,350.8L435.4,350.8z M198.5,459.1
		h-19.9c-18.3,0-33.2-14.9-33.2-33.2V403c0-18.3,14.9-33.2,33.2-33.2h19.9V459.1z M329.3,567.6h-24.1c-8,0-14.5-6.5-14.5-14.5
		s6.5-14.5,14.5-14.5h24.1c8,0,14.5,6.5,14.5,14.5S337.3,567.6,329.3,567.6L329.3,567.6z M465,425.9c0,18.3-14.9,33.2-33.2,33.2
		h-19.9v-89.3h19.9c18.3,0,33.2,14.9,33.2,33.2V425.9z M465,425.9"/>
</g>
</svg>
