<?xml version="1.0" encoding="utf-8"?>
<!-- Generator: Adobe Illustrator 19.0.0, SVG Export Plug-In . SVG Version: 6.00 Build 0)  -->
<svg version="1.1" id="Layer_1" xmlns="http://www.w3.org/2000/svg" xmlns:xlink="http://www.w3.org/1999/xlink" x="0px" y="0px"
	 viewBox="0 0 183 152" style="enable-background:new 0 0 183 152;" xml:space="preserve">
<style type="text/css">
	.st0{fill:#fff;}
</style>
<path class="st0" d="M136.4,48.5h-16.1v-3.8c0-8.2-6.6-14.8-14.8-14.8H84.1c-8.2,0-14.8,6.6-14.8,14.8v3.8H53.2
	c-8.5,0-15.5,7-15.5,15.5v50c0,8.5,7,15.5,15.5,15.5h83.3c8.5,0,15.5-7,15.5-15.5V64C151.9,55.5,145,48.5,136.4,48.5z M76.3,44.8
	c0-4.3,3.5-7.8,7.8-7.8h21.5c4.3,0,7.8,3.5,7.8,7.8v3.8H76.3V44.8z M144.9,114c0,4.7-3.8,8.5-8.5,8.5H53.2c-4.7,0-8.5-3.8-8.5-8.5
	V85.6c2.4,1.7,5.3,2.7,8.5,2.7h9.3v6.2h12.7v-6.2h39.3v6.2h12.7v-6.2h9.3c3.2,0,6.1-1,8.5-2.7V114z M66.5,90.5v-9.7h4.7v9.7H66.5z
	 M118.5,89.5v-8.7h4.7v8.7H118.5z M144.9,78.1c-1.6,3.1-4.8,5.2-8.5,5.2h-9.3v-6.5h-12.7v6.5H75.1v-6.5H62.5v6.5h-9.3
	c-3.7,0-6.9-2.1-8.5-5.2V64c0-4.7,3.8-8.5,8.5-8.5h83.3c4.7,0,8.5,3.8,8.5,8.5V78.1z"/>
</svg>
